<svg xmlns="http://www.w3.org/2000/svg" viewBox="0 0 703.85 165.95"><defs><style>.cls-1{fill:#fff;}</style></defs><title>Asset 3</title><g id="Layer_2" data-name="Layer 2"><g id="Layer_2-2" data-name="Layer 2"><path class="cls-1" d="M102.67,43.16c-4.21-20.94-22-38.25-43.91-37.88C46.28,5.49,34.39,10.22,23.51,16c-6.83,3.61-.77,14,6.06,10.36C45.37,18,66.48,11.62,80.47,26A39.88,39.88,0,0,1,91.1,46.35c1.52,7.57,13.09,4.37,11.57-3.19Z"/><path class="cls-1" d="M202.45,1.68c-8.34-2.44-18.22-2.1-26.5.23C156.13,7.47,145.22,25,140.41,43.44c-1.9,7.26,9.67,10.36,11.57,3.09,3.91-15,12.08-29.78,28.6-33.78a41.65,41.65,0,0,1,13.63-.8c1.78.14-.63-.19,1.45.18l1.94.37a16,16,0,0,1,1.66.4c7.41,2.17,10.57-9,3.19-11.22Z"/><path class="cls-1" d="M215.87,109.12a184.69,184.69,0,0,1-31.33,24.31c1.5-3.89,2.64-7.94,3.74-12,4.37-15.87,1.34-33.78-14.11-42.35-11.39-6.31-24.31-4.47-35.48,1.37-15.11,7.89-21.19,23.94-23.22,40-1.18,9.29-3.77,18.32-10.39,25.24a27.48,27.48,0,0,1-5.38,4.51c-.55.34-2.61,1.34-2.81,1.52a8.47,8.47,0,0,0,1-.38A6.37,6.37,0,0,0,96,152.53C69.48,148.27,44.56,136,23.14,120a128.16,128.16,0,0,1-12.89-10.91c-5.47-5.46-14,3-8.48,8.49,12.69,12.65,28.65,22.94,44.58,30.91,32.79,16.4,70.25,22.61,106,12.61,27.51-7.7,51.57-23.94,72-43.52C230,112.26,221.45,103.78,215.87,109.12Zm-37.72,2.51c-1.07,9.09-4.79,18.78-9.26,26.75A41.25,41.25,0,0,1,166,143.1a137.14,137.14,0,0,1-16.53,6c6.09-11.54,9.17-24.49,11-37.31,1.1-7.55-10.47-10.82-11.57-3.19-1.76,12.2-4.46,24.76-10.45,35.66-2.15,3.91-3.21,6.09-6.26,8.59a118.81,118.81,0,0,1-18.55,1.2,47,47,0,0,0,5.94-7.74c4.56-7.38,6.54-15.6,7.63-24.12,1-8,2.8-16.11,7.5-22.79,5.35-7.6,16.52-13.41,25.84-12.34C173.05,88.5,179.53,99.88,178.15,111.63Z"/><path class="cls-1" d="M300.14,34.27h9.3a3.74,3.74,0,0,1,3.46,5.14C307.08,54,290.57,95.73,287,104.61c-6.66,16.37-12.9,26.78-27,26.78a24.63,24.63,0,0,1-4.3-.42,3.6,3.6,0,0,1-3.19-3.61V120.7a3.77,3.77,0,0,1,3.46-3.74c7.36-.28,11.52-4.72,15.4-16.51-1-2.36-20.11-45.78-26.91-60.9a3.74,3.74,0,0,1,3.47-5.28h9a6.13,6.13,0,0,1,5.82,4l16.37,42.31,15.26-42.17A6.27,6.27,0,0,1,300.14,34.27Z"/><path class="cls-1" d="M384.07,34.27a5,5,0,0,1,5,5V99.62a5,5,0,0,1-5,5H376.3a4.94,4.94,0,0,1-4.85-5V96c-3.89,5.69-10.27,10.27-20.4,10.27-17.75,0-25.8-14.29-25.8-29.14V39.27a5,5,0,0,1,4.86-5h7.77a5,5,0,0,1,4.85,5V73.4c0,9,3.89,15.81,13.74,15.81,10.4,0,15-7.63,15-15.81V39.27a5,5,0,0,1,4.85-5Z"/><path class="cls-1" d="M507.13,60.63v39a5,5,0,0,1-4.86,5H494.5a5,5,0,0,1-5-5V64.24c0-8.74-3.61-14.57-11.79-14.57s-12.49,6.52-12.49,14.57V99.62a5,5,0,0,1-5,5h-7.63a5,5,0,0,1-5-5V64.24c0-8.74-3.61-14.57-11.79-14.57s-12.49,6.52-12.49,14.57V99.62a5,5,0,0,1-5,5h-7.63a5,5,0,0,1-5-5V39.27a5,5,0,0,1,5-5h7.63a5,5,0,0,1,5,5v2.5c3.61-5.14,9.3-9.16,18.59-9.16,9.58,0,15.82,4.44,19.43,11a25.27,25.27,0,0,1,21.22-11C498.8,32.61,507.13,45.65,507.13,60.63Z"/><path class="cls-1" d="M625.19,60.63v39a4.94,4.94,0,0,1-4.85,5h-7.77a5,5,0,0,1-5-5V64.24c0-8.74-3.6-14.57-11.79-14.57S583.3,56.19,583.3,64.24V99.62a5,5,0,0,1-5,5h-7.63a5,5,0,0,1-5-5V64.24c0-8.74-3.61-14.57-11.8-14.57S541.4,56.19,541.4,64.24V99.62a5,5,0,0,1-5,5h-7.63a5,5,0,0,1-5-5V39.27a5,5,0,0,1,5-5h7.63a5,5,0,0,1,5,5v2.5c3.6-5.14,9.29-9.16,18.59-9.16,9.57,0,15.81,4.44,19.42,11a25.28,25.28,0,0,1,21.23-11C616.87,32.61,625.19,45.65,625.19,60.63Z"/><path class="cls-1" d="M690.82,34.27h9.29a3.74,3.74,0,0,1,3.47,5.14c-5.83,14.56-22.34,56.32-25.94,65.2C671,121,664.73,131.39,650.58,131.39a24.72,24.72,0,0,1-4.3-.42,3.61,3.61,0,0,1-3.19-3.61V120.7a3.77,3.77,0,0,1,3.47-3.74c7.35-.28,11.51-4.72,15.4-16.51-1-2.36-20.12-45.78-26.91-60.9a3.74,3.74,0,0,1,3.46-5.28h9a6.13,6.13,0,0,1,5.83,4l16.37,42.31L685,38.44A6.26,6.26,0,0,1,690.82,34.27Z"/></g></g></svg>